# xmcd
#
# Track frame offsets:
# 150
# 13233
# 28010
# 40605
# 54105
# 67085
# 82080
# 96330
# 109683
# 121535
# 137210
# 151458
# 164958
# 179805
#
# Disc length: 2574 seconds
#
#
# Revision: 4
# Processed by: cddbd v1.4PL0 Copyright (c) Steve Scherf et al.
# Submitted via: FreeRIP 2.11 
#
DISCID=c30a0c0e
DTITLE=Muddy Waters - Gold
DYEAR=1900
DGENRE=Blues
TTITLE0=Mannish Boy
TTITLE1=Baby Please Don't Go
TTITLE2=Mean Mistreater
TTITLE3=Rollin' And Tumblin'
TTITLE4=40 Days And 40 Nights
TTITLE5=Rock Me
TTITLE6=One More Mile
TTITLE7=Close To You
TTITLE8=Goin' Home
TTITLE9=I Can't Be Satisfied
TTITLE10=Rollin' Stone
TTITLE11=She Moves Me
TTITLE12=Walkin' Thru The Park
TTITLE13=You Can't Lose What You Ain't Never Had
EXTD=
EXTT0=
EXTT1=
EXTT2=
EXTT3=
EXTT4=
EXTT5=
EXTT6=
EXTT7=
EXTT8=
EXTT9=
EXTT10=
EXTT11=
EXTT12=
EXTT13=
PLAYORDER=
